<svg width="409px" height="397px" viewBox="0 0 409 397" version="1.1" xmlns="http://www.w3.org/2000/svg" xmlns:xlink="http://www.w3.org/1999/xlink">
    <defs>
        <path d="M0.798,0 L409,0 L409,396.129 C195.14,377.779 24.028,210.943 0.798,0 Z" id="path-1"></path>
        <linearGradient x1="117.190052%" y1="24.2296389%" x2="84.3696042%" y2="-38.1279444%" id="linearGradient-3">
            <stop stop-color="#FFFFFF" offset="0%"></stop>
            <stop stop-color="#030303" offset="100%"></stop>
        </linearGradient>
        <polygon id="path-4" points="0.670327177 0 17.757 0 17.757 33.745 0.670327177 33.745"></polygon>
        <polygon id="path-6" points="0.756 0 34.502 0 34.502 45.836 0.756 45.836"></polygon>
        <polygon id="path-8" points="0.502 0 57.89 0 57.89 57.981 0.502 57.981"></polygon>
        <polygon id="path-10" points="0.89 0 85.022 0 85.022 68.776 0.89 68.776"></polygon>
        <polygon id="path-12" points="0.021 0 108.776 0 108.776 76.557 0.021 76.557"></polygon>
        <polygon id="path-14" points="0.776 0 103 0 103 79.848 0.776 79.848"></polygon>
        <polygon id="path-16" points="0.227 0 43 0 43 79.848 0.227 79.848"></polygon>
        <polygon id="path-18" points="0.738 0 121.227 0 121.227 76.557 0.738 76.557"></polygon>
        <polygon id="path-20" points="0.103 0 98.739 0 98.739 68.776 0.103 68.776"></polygon>
        <polygon id="path-22" points="0.789 0 72.103 0 72.103 57.981 0.789 57.981"></polygon>
        <polygon id="path-24" points="0.89 0 45.789 0 45.789 45.836 0.89 45.836"></polygon>
        <polygon id="path-26" points="0.329 0 23.89 0 23.89 33.745 0.329 33.745"></polygon>
        <polygon id="path-28" points="0.112 0 9.33 0 9.33 22.682 0.112 22.682"></polygon>
        <polygon id="path-30" points="0.775 0.551 103 0.551 103 101.547 0.775 101.547"></polygon>
        <polygon id="path-32" points="0.826 0.842 38 0.842 38 100.335647 0.826 100.335647"></polygon>
        <polygon id="path-34" points="0.171 0.6376 86 0.6376 86 65.9846 0.171 65.9846"></polygon>
        <polygon id="path-36" points="0.896 0.6826 26 0.6826 26 61.4699157 0.896 61.4699157"></polygon>
        <polygon id="path-38" points="0.171 0.5582 86 0.5582 86 83.6862 0.171 83.6862"></polygon>
        <polygon id="path-40" points="0.826 0.5579 38 0.5579 38 83.6859 0.826 83.6859"></polygon>
        <polygon id="path-42" points="0.262 0.9902 63 0.9902 63 44.1182 0.262 44.1182"></polygon>
        <polygon id="path-44" points="0.897 0.9907 26 0.9907 26 44.1187 0.897 44.1187"></polygon>
        <polygon id="path-46" points="0.262 0.3725 63 0.3725 63 29.8635 0.262 29.8635"></polygon>
        <polygon id="path-48" points="0.264 0.1165 12 0.1165 12 24.1928687 0.264 24.1928687"></polygon>
        <polygon id="path-50" points="0.16 0.8657 41 0.8657 41 14.7187 0.16 14.7187"></polygon>
        <polygon id="path-52" points="0.265 0.8658 12 0.8658 12 14.7188 0.265 14.7188"></polygon>
    </defs>
    <g id="TopRight" stroke="none" stroke-width="1" fill="none" fill-rule="evenodd">
        <g id="Group" transform="translate(-2.000000, 0.000000)">
            <g id="Group-601" transform="translate(2.000000, 0.000000)">
                <mask id="mask-2" fill="white">
                    <use href="#path-1"></use>
                </mask>
                <g id="Clip-600"></g>
                <polygon id="Fill-599" fill="url(#linearGradient-3)" mask="url(#mask-2)" points="-1511 1080 409 1080 409 0 -1511 0"></polygon>
            </g>
            <g id="Group-781">
                <g id="Group-780">
                    <g id="Group-779">
                        <g id="Group-604" transform="translate(7.000000, 0.000000)">
                            <mask id="mask-5" fill="white">
                                <use href="#path-4"></use>
                            </mask>
                            <g id="Clip-603"></g>
                            <path d="M2.33,-38.813 C3.912,-26.941 5.955,-15.142 8.412,-3.42 C11.073,9.078 14.203,21.469 17.757,33.745 C14.354,32.06 11.037,30.204 7.915,28.039 C5.65,26.445 3.501,24.691 1.588,22.683 C0.893,12.917 0.604,3.131 0.683,-6.66 C0.806,-17.396 1.371,-28.118 2.33,-38.813 Z" id="Stroke-602" stroke="#FFFFFF" stroke-linecap="round" stroke-linejoin="round" mask="url(#mask-5)"></path>
                        </g>
                        <g id="Group-607" transform="translate(24.000000, 0.000000)">
                            <mask id="mask-7" fill="white">
                                <use href="#path-6"></use>
                            </mask>
                            <g id="Clip-606"></g>
                            <path d="M8.89,-37.041 C12.055,-23.384 15.723,-9.854 19.831,3.548 C24.246,17.806 29.154,31.903 34.502,45.836 C27.935,44.018 21.419,42.021 15.008,39.711 C10.165,37.947 5.389,36.006 0.756,33.744 C1.087,22.466 1.917,11.214 3.166,0 C4.59,-12.418 6.525,-24.768 8.89,-37.041 Z" id="Stroke-605" stroke="#FFFFFF" stroke-linecap="round" stroke-linejoin="round" mask="url(#mask-7)"></path>
                        </g>
                        <g id="Group-610" transform="translate(58.000000, 0.000000)">
                            <mask id="mask-9" fill="white">
                                <use href="#path-8"></use>
                            </mask>
                            <g id="Clip-609"></g>
                            <path d="M19.789,-35.174 C25.046,-19.704 30.785,-4.406 36.943,10.727 C43.478,26.674 50.474,42.425 57.89,57.981 C47.204,56.195 36.55,54.227 25.951,51.979 C17.416,50.15 8.921,48.141 0.502,45.836 C2.593,32.849 5.196,19.957 8.208,7.154 C11.598,-7.081 15.488,-21.187 19.789,-35.174 Z" id="Stroke-608" stroke="#FFFFFF" stroke-linecap="round" stroke-linejoin="round" mask="url(#mask-9)"></path>
                        </g>
                        <g id="Group-613" transform="translate(115.000000, 0.000000)">
                            <mask id="mask-11" fill="white">
                                <use href="#path-10"></use>
                            </mask>
                            <g id="Clip-612"></g>
                            <path d="M34.103,-33.392 C41.665,-16.298 49.626,0.615 57.944,17.356 C66.598,34.691 75.631,51.83 85.022,68.776 C69.857,67.277 54.712,65.589 39.598,63.648 C26.665,61.97 13.757,60.109 0.89,57.981 C5.353,43.245 10.246,28.648 15.479,14.168 C21.3,-1.835 27.531,-17.683 34.103,-33.392 Z" id="Stroke-611" stroke="#FFFFFF" stroke-linecap="round" stroke-linejoin="round" mask="url(#mask-11)"></path>
                        </g>
                        <g id="Group-616" transform="translate(200.000000, 0.000000)">
                            <mask id="mask-13" fill="white">
                                <use href="#path-12"></use>
                            </mask>
                            <g id="Clip-615"></g>
                            <path d="M47.738,-31.939 C57.322,-13.661 67.175,4.474 77.283,22.468 C87.523,40.647 98.021,58.678 108.776,76.557 C89.742,75.628 70.718,74.503 51.71,73.146 C34.463,71.897 17.231,70.457 0.021,68.775 C7.122,52.454 14.501,36.257 22.106,20.164 C30.398,2.673 38.954,-14.69 47.738,-31.939 Z" id="Stroke-614" stroke="#FFFFFF" stroke-linecap="round" stroke-linejoin="round" mask="url(#mask-13)"></path>
                        </g>
                        <g id="Group-619" transform="translate(308.000000, 0.000000)">
                            <mask id="mask-15" fill="white">
                                <use href="#path-14"></use>
                            </mask>
                            <g id="Clip-618"></g>
                            <path d="M60.227,-31.067 C70.965,-12.267 81.819,6.466 92.79,25.131 C103.563,43.438 114.448,61.679 125.453,79.848 C104.269,79.72 83.087,79.384 61.91,78.831 C41.525,78.282 21.146,77.532 0.776,76.558 C10.21,59.039 19.742,41.573 29.358,24.154 C39.557,5.697 49.849,-12.709 60.227,-31.067 Z" id="Stroke-617" stroke="#FFFFFF" stroke-linecap="round" stroke-linejoin="round" mask="url(#mask-15)"></path>
                        </g>
                        <g id="Group-622" transform="translate(368.000000, 0.000000)">
                            <mask id="mask-17" fill="white">
                                <use href="#path-16"></use>
                            </mask>
                            <g id="Clip-621"></g>
                            <path d="M65.452,79.848 C54.449,61.678 43.565,43.437 32.792,25.129 C21.821,6.465 10.966,-12.268 0.227,-31.067 C21.846,-30.981 43.466,-30.93 65.085,-30.909 C86.889,-30.893 108.692,-30.909 130.494,-30.957 C119.652,-12.149 108.738,6.618 97.749,25.342 C87.055,43.553 76.291,61.723 65.452,79.848 Z" id="Stroke-620" stroke="#FFFFFF" stroke-linecap="round" stroke-linejoin="round" mask="url(#mask-17)"></path>
                        </g>
                        <g id="Group-625" transform="translate(247.000000, 0.000000)">
                            <mask id="mask-19" fill="white">
                                <use href="#path-18"></use>
                            </mask>
                            <g id="Clip-624"></g>
                            <path d="M61.776,76.557 C51.023,58.677 40.526,40.646 30.285,22.467 C20.177,4.474 10.323,-13.661 0.738,-31.939 C20.115,-31.73 39.493,-31.557 58.871,-31.414 C79.656,-31.265 100.442,-31.151 121.227,-31.068 C110.848,-12.71 100.555,5.695 90.356,24.152 C80.741,41.572 71.21,59.037 61.776,76.557 Z" id="Stroke-623" stroke="#FFFFFF" stroke-linecap="round" stroke-linejoin="round" mask="url(#mask-19)"></path>
                        </g>
                        <g id="Group-628" transform="translate(149.000000, 0.000000)">
                            <mask id="mask-21" fill="white">
                                <use href="#path-20"></use>
                            </mask>
                            <g id="Clip-627"></g>
                            <path d="M51.022,68.776 C41.631,51.83 32.6,34.69 23.946,17.354 C15.627,0.616 7.666,-16.297 0.103,-33.392 C15.461,-33.094 30.82,-32.835 46.18,-32.606 C63.699,-32.349 81.219,-32.129 98.739,-31.938 C89.954,-14.69 81.397,2.672 73.105,20.163 C65.501,36.257 58.122,52.455 51.022,68.776 Z" id="Stroke-626" stroke="#FFFFFF" stroke-linecap="round" stroke-linejoin="round" mask="url(#mask-21)"></path>
                        </g>
                        <g id="Group-631" transform="translate(77.000000, 0.000000)">
                            <mask id="mask-23" fill="white">
                                <use href="#path-22"></use>
                            </mask>
                            <g id="Clip-630"></g>
                            <path d="M38.89,57.981 C31.474,42.424 24.479,26.674 17.945,10.726 C11.786,-4.406 6.047,-19.703 0.789,-35.174 C11.512,-34.828 22.236,-34.528 32.96,-34.257 C46.007,-33.931 59.055,-33.648 72.103,-33.392 C65.531,-17.683 59.299,-1.837 53.477,14.167 C48.245,28.647 43.352,43.245 38.89,57.981 Z" id="Stroke-629" stroke="#FFFFFF" stroke-linecap="round" stroke-linejoin="round" mask="url(#mask-23)"></path>
                        </g>
                        <g id="Group-634" transform="translate(32.000000, 0.000000)">
                            <mask id="mask-25" fill="white">
                                <use href="#path-24"></use>
                            </mask>
                            <g id="Clip-633"></g>
                            <path d="M26.502,45.836 C21.153,31.902 16.246,17.806 11.832,3.548 C7.724,-9.855 4.055,-23.384 0.89,-37.041 C7.353,-36.683 13.819,-36.38 20.287,-36.107 C28.785,-35.754 37.287,-35.449 45.789,-35.174 C41.487,-21.188 37.597,-7.082 34.207,7.153 C31.195,19.956 28.592,32.85 26.502,45.836 Z" id="Stroke-632" stroke="#FFFFFF" stroke-linecap="round" stroke-linejoin="round" mask="url(#mask-25)"></path>
                        </g>
                        <g id="Group-637" transform="translate(9.000000, 0.000000)">
                            <mask id="mask-27" fill="white">
                                <use href="#path-26"></use>
                            </mask>
                            <g id="Clip-636"></g>
                            <path d="M15.756,33.745 C12.202,21.469 9.073,9.079 6.411,-3.421 C3.954,-15.141 1.911,-26.941 0.329,-38.813 C3.5,-38.462 6.677,-38.19 9.857,-37.945 C14.531,-37.591 19.21,-37.301 23.89,-37.04 C21.525,-24.767 19.59,-12.419 18.165,0 C16.917,11.214 16.087,22.467 15.756,33.745 Z" id="Stroke-635" stroke="#FFFFFF" stroke-linecap="round" stroke-linejoin="round" mask="url(#mask-27)"></path>
                        </g>
                        <g id="Group-640">
                            <mask id="mask-29" fill="white">
                                <use href="#path-28"></use>
                            </mask>
                            <g id="Clip-639"></g>
                            <path d="M8.588,22.682 C6.366,11.963 4.512,1.175 3.055,-9.675 C1.716,-19.873 0.728,-30.11 0.112,-40.375 C1.181,-40.037 2.286,-39.821 3.39,-39.625 C5.359,-39.283 7.344,-39.034 9.33,-38.814 C8.37,-28.12 7.805,-17.398 7.682,-6.661 C7.604,3.13 7.892,12.916 8.588,22.682 Z" id="Stroke-638" stroke="#FFFFFF" stroke-linecap="round" stroke-linejoin="round" mask="url(#mask-29)"></path>
                        </g>
                        <g id="Group-643" transform="translate(308.000000, 76.000000)">
                            <mask id="mask-31" fill="white">
                                <use href="#path-30"></use>
                            </mask>
                            <g id="Clip-642"></g>
                            <path d="M65.825,101.547 C54.723,85.445 43.884,69.164 33.28,52.73 C22.19,35.497 11.36,18.099 0.775,0.551 C21.145,1.527 41.524,2.277 61.909,2.827 C83.087,3.379 104.268,3.714 125.452,3.842 C115.219,20.938 104.919,37.992 94.541,55 C85.04,70.559 75.473,86.079 65.825,101.547 Z" id="Stroke-641" stroke="#FFFFFF" stroke-linecap="round" stroke-linejoin="round" mask="url(#mask-31)"></path>
                        </g>
                        <path d="M260.974,167.9396 C250.178,152.0006 239.739,135.8266 229.642,119.4356 C219.41,102.7596 209.535,85.8676 200.021,68.7696 C217.231,70.4536 234.463,71.8936 251.71,73.1426 C270.718,74.4996 289.742,75.6236 308.776,76.5506 C300.149,92.5886 291.604,108.6706 283.163,124.8066 C275.676,139.1366 268.27,153.5106 260.974,167.9396 Z" id="Stroke-644" stroke="#FFFFFF" stroke-linecap="round" stroke-linejoin="round"></path>
                        <path d="M167.465,151.8131 C157.978,136.5931 148.905,121.1231 140.251,105.4141 C131.705,89.8221 123.577,74.0081 115.889,57.9761 C128.756,60.1041 141.664,61.9671 154.597,63.6441 C169.712,65.5841 184.857,67.2711 200.021,68.7701 C193.694,83.3681 187.591,98.0621 181.784,112.8751 C176.757,125.7601 171.954,138.7311 167.465,151.8131 Z" id="Stroke-646" stroke="#FFFFFF" stroke-linecap="round" stroke-linejoin="round"></path>
                        <path d="M98.449,131.8798 C90.79,117.7928 83.567,103.4758 76.801,88.9378 C70.248,74.7638 64.137,60.3948 58.502,45.8318 C66.921,48.1388 75.416,50.1478 83.951,51.9768 C94.55,54.2248 105.204,56.1908 115.89,57.9758 C111.98,70.9958 108.409,84.1128 105.29,97.3438 C102.626,108.7778 100.303,120.2868 98.449,131.8798 Z" id="Stroke-648" stroke="#FFFFFF" stroke-linecap="round" stroke-linejoin="round"></path>
                        <path d="M53.466,110.7908 C47.693,98.0618 42.348,85.1498 37.457,72.0568 C32.783,59.4328 28.536,46.6598 24.756,33.7398 C29.387,36.0038 34.165,37.9438 39.008,39.7088 C45.419,42.0188 51.935,44.0148 58.502,45.8318 C56.69,57.3118 55.281,68.8498 54.39,80.4388 C53.649,90.5408 53.303,100.6628 53.466,110.7908 Z" id="Stroke-650" stroke="#FFFFFF" stroke-linecap="round" stroke-linejoin="round"></path>
                        <path d="M28.154,90.6166 C24.012,79.3036 20.26,67.8566 16.919,56.2816 C13.751,45.1806 10.965,33.9766 8.587,22.6786 C10.5,24.6866 12.649,26.4416 14.914,28.0366 C18.036,30.2016 21.353,32.0566 24.756,33.7406 C24.495,43.8176 24.634,53.8966 25.248,63.9576 C25.825,72.8836 26.775,81.7776 28.154,90.6166 Z" id="Stroke-652" stroke="#FFFFFF" stroke-linecap="round" stroke-linejoin="round"></path>
                        <path d="M8.587,22.679 C10.965,33.976 13.751,45.18 16.919,56.282 C20.26,67.856 24.012,79.303 28.154,90.617 C25.515,87.704 23.085,84.615 20.927,81.329 C19.147,78.579 17.566,75.713 16.212,72.73 C14.37,64.923 12.836,57.051 11.59,49.127 C10.239,40.352 9.247,31.531 8.587,22.679 Z" id="Stroke-654" stroke="#FFFFFF" stroke-linecap="round" stroke-linejoin="round"></path>
                        <path d="M24.756,33.74 C28.537,46.659 32.783,59.433 37.458,72.057 C42.348,85.149 47.693,98.062 53.466,110.791 C48.354,107.646 43.403,104.246 38.722,100.486 C34.975,97.441 31.421,94.174 28.154,90.616 C26.776,81.779 25.826,72.885 25.249,63.96 C24.635,53.897 24.495,43.817 24.756,33.74 Z" id="Stroke-656" stroke="#FFFFFF" stroke-linecap="round" stroke-linejoin="round"></path>
                        <path d="M58.502,45.832 C64.137,60.395 70.249,74.765 76.8,88.939 C83.567,103.477 90.79,117.793 98.449,131.88 C89.884,128.695 81.429,125.224 73.159,121.333 C66.429,118.137 59.834,114.665 53.467,110.791 C53.304,100.664 53.65,90.541 54.392,80.44 C55.283,68.851 56.691,57.314 58.502,45.832 Z" id="Stroke-658" stroke="#FFFFFF" stroke-linecap="round" stroke-linejoin="round"></path>
                        <path d="M115.889,57.976 C123.576,74.009 131.704,89.824 140.249,105.416 C148.905,121.123 157.978,136.594 167.465,151.813 C154.827,148.933 142.261,145.747 129.808,142.146 C119.246,139.062 108.775,135.681 98.449,131.88 C100.304,120.287 102.627,108.779 105.29,97.345 C108.41,84.114 111.98,70.996 115.889,57.976 Z" id="Stroke-660" stroke="#FFFFFF" stroke-linecap="round" stroke-linejoin="round"></path>
                        <path d="M200.021,68.77 C209.534,85.868 219.408,102.76 229.64,119.437 C239.737,135.827 250.177,152.002 260.974,167.94 C244.377,165.816 227.824,163.371 211.335,160.528 C196.645,157.967 182.012,155.094 167.465,151.813 C171.955,138.731 176.758,125.761 181.786,112.877 C187.593,98.063 193.694,83.369 200.021,68.77 Z" id="Stroke-662" stroke="#FFFFFF" stroke-linecap="round" stroke-linejoin="round"></path>
                        <path d="M308.776,76.55 C319.359,94.098 330.189,111.498 341.278,128.73 C351.883,145.165 362.723,161.445 373.826,177.546 C354.376,176.618 334.945,175.349 315.542,173.705 C297.317,172.132 279.123,170.228 260.974,167.939 C268.271,153.51 275.677,139.138 283.165,124.808 C291.606,108.671 300.15,92.588 308.776,76.55 Z" id="Stroke-664" stroke="#FFFFFF" stroke-linecap="round" stroke-linejoin="round"></path>
                        <g id="Group-668" transform="translate(373.000000, 79.000000)">
                            <mask id="mask-33" fill="white">
                                <use href="#path-32"></use>
                            </mask>
                            <g id="Clip-667"></g>
                            <path d="M60.452,0.842 C70.933,18.128 81.522,35.35 92.234,52.496 C102.134,68.32 112.138,84.079 122.267,99.757 C101.952,100.282 81.628,100.45 61.305,100.26 C41.137,100.044 20.974,99.478 0.826,98.547 C10.474,83.079 20.042,67.56 29.544,52.001 C39.922,34.993 50.22,17.938 60.452,0.842 Z" id="Stroke-666" stroke="#FFFFFF" stroke-linecap="round" stroke-linejoin="round" mask="url(#mask-33)"></path>
                        </g>
                        <g id="Group-671" transform="translate(325.000000, 253.000000)">
                            <mask id="mask-35" fill="white">
                                <use href="#path-34"></use>
                            </mask>
                            <g id="Clip-670"></g>
                            <path d="M60.897,65.9846 C50.728,56.3316 40.893,46.3366 31.326,36.0876 C20.615,24.5596 10.25,12.7216 0.171,0.6376 C18.201,2.7186 36.279,4.3306 54.39,5.5106 C73.08,6.6896 91.793,7.4086 110.518,7.6826 C101.961,18.5676 93.229,29.3106 84.253,39.8526 C76.663,48.7366 68.902,57.4726 60.897,65.9846 Z" id="Stroke-669" stroke="#FFFFFF" stroke-linecap="round" stroke-linejoin="round" mask="url(#mask-35)"></path>
                        </g>
                        <path d="M289.725,305.5577 C279.05,295.2397 268.744,284.5547 258.757,273.5697 C247.974,261.6487 237.579,249.3907 227.529,236.8477 C242.988,240.4567 258.552,243.5837 274.191,246.3027 C291.117,249.2057 308.116,251.6317 325.171,253.6377 C318.78,263.3257 312.329,272.9737 305.783,282.5587 C300.505,290.2767 295.165,297.9537 289.725,305.5577 Z" id="Stroke-672" stroke="#FFFFFF" stroke-linecap="round" stroke-linejoin="round"></path>
                        <path d="M207.849,282.7219 C197.661,272.0959 187.854,261.1189 178.4,249.8359 C168.497,237.9519 158.997,225.7439 149.879,213.2489 C161.745,217.8389 173.786,221.9499 185.948,225.6839 C199.684,229.8589 213.557,233.5499 227.529,236.8469 C223.62,245.3569 219.793,253.9049 216.104,262.5119 C213.245,269.2049 210.471,275.9319 207.849,282.7219 Z" id="Stroke-674" stroke="#FFFFFF" stroke-linecap="round" stroke-linejoin="round"></path>
                        <path d="M144.541,253.991 C135.529,243.451 126.895,232.601 118.627,221.468 C110.174,210.018 102.118,198.287 94.456,186.293 C102.558,191.259 110.911,195.789 119.437,199.982 C129.393,204.835 139.562,209.221 149.879,213.249 C148.273,220.781 146.898,228.362 145.909,236.003 C145.16,241.974 144.647,247.972 144.541,253.991 Z" id="Stroke-676" stroke="#FFFFFF" stroke-linecap="round" stroke-linejoin="round"></path>
                        <path d="M99.977,223.0435 C92.459,212.9205 85.3,202.5415 78.498,191.9235 C71.671,181.1975 65.218,170.2445 59.144,159.0735 C64.008,163.8715 69.168,168.3455 74.548,172.5515 C80.929,177.4945 87.594,182.0465 94.456,186.2935 C94.697,193.1085 95.269,199.9065 96.303,206.6495 C97.183,212.1875 98.374,217.6685 99.977,223.0435 Z" id="Stroke-678" stroke="#FFFFFF" stroke-linecap="round" stroke-linejoin="round"></path>
                        <path d="M71.129,192.9995 C65.102,183.5125 59.399,173.8275 54.025,163.9565 C48.7,154.1085 43.709,144.0895 39.059,133.9065 C41.658,138.1405 44.502,142.2135 47.563,146.1255 C51.158,150.6745 55.036,154.9835 59.144,159.0735 C60.641,165.3465 62.455,171.5335 64.627,177.6065 C66.528,182.8465 68.691,187.9855 71.129,192.9995 Z" id="Stroke-680" stroke="#FFFFFF" stroke-linecap="round" stroke-linejoin="round"></path>
                        <path d="M59.144,159.0737 C65.217,170.2437 71.67,181.1977 78.498,191.9227 C85.299,202.5407 92.459,212.9207 99.977,223.0437 C94.366,218.2017 88.98,213.1097 83.863,207.7467 C79.394,203.0277 75.141,198.1137 71.129,192.9997 C68.691,187.9857 66.529,182.8477 64.628,177.6067 C62.455,171.5347 60.643,165.3457 59.144,159.0737 Z" id="Stroke-682" stroke="#FFFFFF" stroke-linecap="round" stroke-linejoin="round"></path>
                        <path d="M94.456,186.2933 C102.118,198.2863 110.173,210.0183 118.626,221.4683 C126.894,232.6003 135.529,243.4513 144.541,253.9913 C136.153,249.2143 127.967,244.0983 120.045,238.5793 C113.117,233.7143 106.409,228.5493 99.977,223.0433 C98.374,217.6693 97.183,212.1893 96.304,206.6513 C95.268,199.9073 94.697,193.1103 94.456,186.2933 Z" id="Stroke-684" stroke="#FFFFFF" stroke-linecap="round" stroke-linejoin="round"></path>
                        <path d="M149.878,213.2487 C158.997,225.7437 168.496,237.9517 178.399,249.8357 C187.853,261.1197 197.66,272.0977 207.848,282.7217 C196.319,278.5267 184.943,273.9307 173.773,268.8557 C163.829,264.2987 154.065,259.3687 144.541,253.9907 C144.648,247.9727 145.161,241.9737 145.91,236.0037 C146.899,228.3637 148.273,220.7827 149.878,213.2487 Z" id="Stroke-686" stroke="#FFFFFF" stroke-linecap="round" stroke-linejoin="round"></path>
                        <path d="M227.529,236.8473 C237.578,249.3903 247.974,261.6493 258.755,273.5703 C268.743,284.5543 279.05,295.2393 289.725,305.5593 C275.251,302.5403 260.876,299.0793 246.633,295.1103 C233.564,291.4293 220.622,287.3243 207.848,282.7223 C210.471,275.9333 213.247,269.2063 216.106,262.5143 C219.794,253.9063 223.621,245.3583 227.529,236.8473 Z" id="Stroke-688" stroke="#FFFFFF" stroke-linecap="round" stroke-linejoin="round"></path>
                        <path d="M325.171,253.6373 C335.249,265.7213 345.614,277.5603 356.324,289.0883 C365.892,299.3383 375.727,309.3313 385.897,318.9843 C369.365,317.6873 352.878,315.9153 336.454,313.6333 C320.797,311.4183 305.213,308.7433 289.724,305.5573 C295.166,297.9533 300.506,290.2773 305.786,282.5603 C312.33,272.9753 318.781,263.3263 325.171,253.6373 Z" id="Stroke-690" stroke="#FFFFFF" stroke-linecap="round" stroke-linejoin="round"></path>
                        <g id="Group-694" transform="translate(385.000000, 260.000000)">
                            <mask id="mask-37" fill="white">
                                <use href="#path-36"></use>
                            </mask>
                            <g id="Clip-693"></g>
                            <path d="M50.517,0.6826 C59.538,11.8686 68.763,22.8856 78.261,33.6726 C86.393,42.8726 94.72,51.8976 103.318,60.6666 C86.199,61.3966 69.066,61.6276 51.933,61.3656 C34.9,61.0646 17.883,60.2766 0.896,58.9846 C8.902,50.4726 16.663,41.7366 24.255,32.8536 C33.23,22.3116 41.962,11.5676 50.517,0.6826 Z" id="Stroke-692" stroke="#FFFFFF" stroke-linecap="round" stroke-linejoin="round" mask="url(#mask-37)"></path>
                        </g>
                        <path d="M28.157,90.6232 C32.462,102.2762 37.176,113.7702 42.279,125.0982 C47.508,136.6162 53.135,147.9462 59.146,159.0772 C55.038,154.9852 51.159,150.6762 47.564,146.1262 C44.504,142.2142 41.66,138.1432 39.061,133.9102 C36.727,127.3152 34.693,120.6222 32.942,113.8492 C30.99,106.1842 29.407,98.4342 28.157,90.6232 Z" id="Stroke-695" stroke="#FFFFFF" stroke-linecap="round" stroke-linejoin="round"></path>
                        <path d="M53.468,110.7987 C59.406,123.7947 65.783,136.5807 72.582,149.1487 C79.458,161.7727 86.752,174.1607 94.457,186.2967 C87.594,182.0497 80.929,177.4967 74.548,172.5537 C69.168,168.3477 64.008,163.8737 59.145,159.0767 C57.435,151.7707 56.158,144.3787 55.236,136.9327 C54.198,128.2557 53.643,119.5347 53.468,110.7987 Z" id="Stroke-697" stroke="#FFFFFF" stroke-linecap="round" stroke-linejoin="round"></path>
                        <path d="M98.451,131.8887 C106.203,146.0607 114.389,159.9847 123.004,173.6497 C131.551,187.1267 140.507,200.3357 149.88,213.2517 C139.564,209.2237 129.394,204.8367 119.437,199.9847 C110.911,195.7917 102.558,191.2627 94.457,186.2967 C94.202,178.0227 94.431,169.7467 94.997,161.4887 C95.714,151.5747 96.912,141.7077 98.451,131.8887 Z" id="Stroke-699" stroke="#FFFFFF" stroke-linecap="round" stroke-linejoin="round"></path>
                        <path d="M167.466,151.822 C176.853,166.806 186.635,181.535 196.825,195.984 C206.679,209.891 216.905,223.525 227.529,236.852 C213.558,233.553 199.684,229.861 185.948,225.686 C173.786,221.953 161.746,217.842 149.88,213.252 C151.914,203.85 154.308,194.532 156.929,185.277 C160.143,174.033 163.692,162.89 167.466,151.822 Z" id="Stroke-701" stroke="#FFFFFF" stroke-linecap="round" stroke-linejoin="round"></path>
                        <path d="M260.975,167.9495 C271.353,183.2105 282.057,198.2455 293.115,213.0225 C303.479,226.8125 314.15,240.3685 325.171,253.6405 C308.117,251.6355 291.117,249.2095 274.192,246.3055 C258.552,243.5855 242.989,240.4605 227.529,236.8515 C232.386,226.3035 237.367,215.8155 242.43,205.3655 C248.507,192.8425 254.7,180.3755 260.975,167.9495 Z" id="Stroke-703" stroke="#FFFFFF" stroke-linecap="round" stroke-linejoin="round"></path>
                        <g id="Group-707" transform="translate(325.000000, 177.000000)">
                            <mask id="mask-39" fill="white">
                                <use href="#path-38"></use>
                            </mask>
                            <g id="Clip-706"></g>
                            <path d="M48.826,0.5582 C59.146,15.4822 69.69,30.2492 80.5,44.8222 C90.274,57.9552 100.261,70.9272 110.517,83.6862 C91.793,83.4112 73.08,82.6932 54.391,81.5132 C36.28,80.3342 18.202,78.7222 0.171,76.6412 C7.831,65.0132 15.401,53.3262 22.909,41.5992 C31.626,27.9682 40.258,14.2832 48.826,0.5582 Z" id="Stroke-705" stroke="#FFFFFF" stroke-linecap="round" stroke-linejoin="round" mask="url(#mask-39)"></path>
                        </g>
                        <g id="Group-710" transform="translate(373.000000, 177.000000)">
                            <mask id="mask-41" fill="white">
                                <use href="#path-40"></use>
                            </mask>
                            <g id="Clip-709"></g>
                            <path d="M62.517,83.6859 C52.262,70.9259 42.275,57.9549 32.503,44.8209 C21.692,30.2479 11.147,15.4819 0.826,0.5579 C20.975,1.4899 41.137,2.0559 61.306,2.2739 C81.628,2.4619 101.951,2.2949 122.267,1.7689 C112.173,16.4979 101.886,31.0949 91.364,45.5239 C81.95,58.3969 72.353,71.1339 62.517,83.6859 Z" id="Stroke-708" stroke="#FFFFFF" stroke-linecap="round" stroke-linejoin="round" mask="url(#mask-41)"></path>
                        </g>
                        <path d="M325.171,253.6407 C314.15,240.3687 303.481,226.8127 293.117,213.0207 C282.057,198.2457 271.354,183.2097 260.975,167.9497 C279.124,170.2397 297.317,172.1447 315.543,173.7187 C334.945,175.3617 354.376,176.6297 373.825,177.5577 C365.256,191.2827 356.624,204.9677 347.906,218.5987 C340.399,230.3247 332.829,242.0117 325.171,253.6407 Z" id="Stroke-711" stroke="#FFFFFF" stroke-linecap="round" stroke-linejoin="round"></path>
                        <path d="M227.53,236.8518 C216.905,223.5238 206.68,209.8898 196.826,195.9848 C186.636,181.5348 176.854,166.8058 167.467,151.8218 C182.014,155.1038 196.647,157.9798 211.338,160.5408 C227.827,163.3818 244.379,165.8268 260.976,167.9498 C254.7,180.3748 248.506,192.8408 242.428,205.3648 C237.366,215.8138 232.385,226.3038 227.53,236.8518 Z" id="Stroke-713" stroke="#FFFFFF" stroke-linecap="round" stroke-linejoin="round"></path>
                        <path d="M149.88,213.252 C140.506,200.336 131.551,187.127 123.005,173.648 C114.39,159.984 106.203,146.06 98.451,131.889 C108.776,135.691 119.249,139.072 129.81,142.157 C142.263,145.757 154.828,148.943 167.466,151.822 C163.692,162.89 160.142,174.032 156.928,185.276 C154.306,194.531 151.913,203.85 149.88,213.252 Z" id="Stroke-715" stroke="#FFFFFF" stroke-linecap="round" stroke-linejoin="round"></path>
                        <path d="M94.457,186.2966 C86.751,174.1606 79.457,161.7716 72.582,149.1476 C65.784,136.5806 59.406,123.7936 53.468,110.7986 C59.835,114.6726 66.43,118.1456 73.161,121.3436 C81.431,125.2336 89.885,128.7056 98.451,131.8886 C96.912,141.7066 95.712,151.5746 94.995,161.4876 C94.43,169.7456 94.201,178.0206 94.457,186.2966 Z" id="Stroke-717" stroke="#FFFFFF" stroke-linecap="round" stroke-linejoin="round"></path>
                        <path d="M59.146,159.0771 C53.135,147.9461 47.508,136.6161 42.279,125.0971 C37.176,113.7701 32.462,102.2761 28.157,90.6231 C31.423,94.1811 34.978,97.4501 38.725,100.4951 C43.406,104.2551 48.356,107.6541 53.469,110.7991 C53.644,119.5341 54.198,128.2541 55.235,136.9321 C56.158,144.3771 57.436,151.7711 59.146,159.0771 Z" id="Stroke-719" stroke="#FFFFFF" stroke-linecap="round" stroke-linejoin="round"></path>
                        <path d="M39.061,133.91 C34.507,123.863 30.291,113.67 26.424,103.339 C22.68,93.255 19.272,83.05 16.213,72.737 C17.568,75.719 19.15,78.587 20.93,81.337 C23.087,84.623 25.518,87.711 28.157,90.623 C29.407,98.434 30.989,106.183 32.941,113.848 C34.692,120.621 36.727,127.315 39.061,133.91 Z" id="Stroke-721" stroke="#FFFFFF" stroke-linecap="round" stroke-linejoin="round"></path>
                        <path d="M99.98,223.0491 C107.368,232.9381 115.088,242.5671 123.145,251.9181 C130.962,260.9371 139.082,269.6821 147.51,278.1311 C140.584,273.0741 133.862,267.7501 127.376,262.1411 C121.579,257.0921 115.979,251.8261 110.6,246.3341 C108.478,243.0401 106.589,239.6091 104.92,236.0651 C102.964,231.8481 101.334,227.4951 99.98,223.0491 Z" id="Stroke-723" stroke="#FFFFFF" stroke-linecap="round" stroke-linejoin="round"></path>
                        <path d="M144.544,253.9966 C153.221,264.0846 162.234,273.8756 171.6,283.3286 C180.488,292.2466 189.679,300.8526 199.191,309.1036 C189.718,304.4136 180.431,299.3696 171.369,293.9276 C163.205,288.9866 155.238,283.7306 147.51,278.1306 C146.437,274.7656 145.727,271.3066 145.255,267.8096 C144.668,263.2286 144.486,258.6126 144.544,253.9966 Z" id="Stroke-725" stroke="#FFFFFF" stroke-linecap="round" stroke-linejoin="round"></path>
                        <path d="M207.851,282.7275 C217.409,292.6375 227.288,302.2275 237.522,311.4385 C246.973,319.8925 256.71,328.0135 266.769,335.7335 C254.708,331.9885 242.786,327.8255 231.036,323.1955 C220.244,318.9035 209.616,314.2225 199.19,309.1035 C200.082,305.3675 201.182,301.6835 202.365,298.0295 C204.048,292.8785 205.908,287.7865 207.851,282.7275 Z" id="Stroke-727" stroke="#FFFFFF" stroke-linecap="round" stroke-linejoin="round"></path>
                        <path d="M289.727,305.5646 C299.425,314.8866 309.415,323.8946 319.748,332.5096 C328.976,340.1536 338.464,347.4746 348.263,354.3746 C334.098,352.1436 320.014,349.4526 306.034,346.2626 C292.826,343.2096 279.728,339.7146 266.769,335.7336 C270.219,331.5956 273.548,327.3606 276.819,323.0816 C281.214,317.3116 285.5,311.4586 289.727,305.5646 Z" id="Stroke-729" stroke="#FFFFFF" stroke-linecap="round" stroke-linejoin="round"></path>
                        <g id="Group-733" transform="translate(348.000000, 318.000000)">
                            <mask id="mask-43" fill="white">
                                <use href="#path-42"></use>
                            </mask>
                            <g id="Clip-732"></g>
                            <path d="M37.897,0.9902 C46.786,9.3832 55.919,17.5092 65.371,25.2642 C73.473,31.8682 81.797,38.1942 90.41,44.1182 C75.147,43.8172 59.903,43.0262 44.692,41.7362 C29.826,40.4342 15.01,38.6552 0.262,36.3752 C6.245,31.6072 11.987,26.5542 17.579,21.3362 C24.569,14.7742 31.314,7.9592 37.897,0.9902 Z" id="Stroke-731" stroke="#FFFFFF" stroke-linecap="round" stroke-linejoin="round" mask="url(#mask-43)"></path>
                        </g>
                        <g id="Group-736" transform="translate(385.000000, 318.000000)">
                            <mask id="mask-45" fill="white">
                                <use href="#path-44"></use>
                            </mask>
                            <g id="Clip-735"></g>
                            <path d="M53.41,44.1187 C44.797,38.1937 36.474,31.8687 28.373,25.2627 C18.921,17.5077 9.786,9.3827 0.897,0.9907 C17.884,2.2817 34.901,3.0717 51.933,3.3727 C69.066,3.6337 86.199,3.4017 103.318,2.6727 C94.817,10.7707 86.087,18.6217 77.05,26.1177 C69.404,32.4197 61.547,38.4617 53.41,44.1187 Z" id="Stroke-734" stroke="#FFFFFF" stroke-linecap="round" stroke-linejoin="round" mask="url(#mask-45)"></path>
                        </g>
                        <path d="M348.262,354.375 C338.464,347.475 328.976,340.154 319.748,332.51 C309.415,323.895 299.425,314.886 289.726,305.565 C305.214,308.75 320.798,311.425 336.455,313.641 C352.879,315.922 369.366,317.694 385.897,318.991 C379.313,325.96 372.568,332.774 365.577,339.335 C359.986,344.553 354.244,349.608 348.262,354.375 Z" id="Stroke-737" stroke="#FFFFFF" stroke-linecap="round" stroke-linejoin="round"></path>
                        <path d="M266.769,335.7334 C256.711,328.0134 246.974,319.8924 237.524,311.4384 C227.29,302.2274 217.409,292.6374 207.852,282.7274 C220.625,287.3314 233.567,291.4364 246.636,295.1184 C260.879,299.0864 275.253,302.5474 289.727,305.5644 C285.5,311.4584 281.213,317.3104 276.817,323.0804 C273.547,327.3604 270.218,331.5964 266.769,335.7334 Z" id="Stroke-739" stroke="#FFFFFF" stroke-linecap="round" stroke-linejoin="round"></path>
                        <path d="M199.19,309.1039 C189.679,300.8529 180.488,292.2469 171.6,283.3289 C162.234,273.8749 153.221,264.0849 144.544,253.9969 C154.069,259.3739 163.833,264.3059 173.776,268.8619 C184.946,273.9369 196.321,278.5319 207.851,282.7279 C205.907,287.7859 204.046,292.8769 202.363,298.0289 C201.18,301.6829 200.082,305.3659 199.19,309.1039 Z" id="Stroke-741" stroke="#FFFFFF" stroke-linecap="round" stroke-linejoin="round"></path>
                        <path d="M147.51,278.1307 C139.081,269.6827 130.962,260.9367 123.146,251.9197 C115.089,242.5677 107.367,232.9377 99.98,223.0487 C106.412,228.5547 113.121,233.7197 120.049,238.5867 C127.97,244.1047 136.156,249.2197 144.544,253.9967 C144.485,258.6127 144.667,263.2267 145.254,267.8077 C145.726,271.3067 146.436,274.7657 147.51,278.1307 Z" id="Stroke-743" stroke="#FFFFFF" stroke-linecap="round" stroke-linejoin="round"></path>
                        <path d="M110.6,246.3344 C103.479,237.9864 96.646,229.4004 90.102,220.5914 C83.47,211.6114 77.145,202.4114 71.132,193.0054 C75.144,198.1184 79.398,203.0334 83.867,207.7534 C88.983,213.1154 94.369,218.2064 99.98,223.0494 C101.333,227.4954 102.963,231.8464 104.919,236.0644 C106.588,239.6084 108.478,243.0404 110.6,246.3344 Z" id="Stroke-745" stroke="#FFFFFF" stroke-linecap="round" stroke-linejoin="round"></path>
                        <g id="Group-749" transform="translate(348.000000, 354.000000)">
                            <mask id="mask-47" fill="white">
                                <use href="#path-46"></use>
                            </mask>
                            <g id="Clip-748"></g>
                            <path d="M51.265,29.8635 C42.925,26.1025 34.798,21.9005 26.857,17.3595 C17.739,12.0995 8.888,6.4045 0.262,0.3725 C15.01,2.6545 29.826,4.4315 44.692,5.7345 C59.903,7.0255 75.148,7.8155 90.41,8.1165 C83.641,12.7835 76.69,17.1765 69.494,21.1555 C63.581,24.3925 57.518,27.3405 51.265,29.8635 Z" id="Stroke-747" stroke="#FFFFFF" stroke-linecap="round" stroke-linejoin="round" mask="url(#mask-47)"></path>
                        </g>
                        <path d="M321.879,371.2107 C312.708,366.3957 303.766,361.1677 295.035,355.5947 C285.343,349.3617 275.93,342.7187 266.768,335.7327 C279.727,339.7137 292.825,343.2077 306.033,346.2607 C320.013,349.4507 334.097,352.1417 348.262,354.3727 C343.601,358.0587 338.802,361.5667 333.782,364.7487 C329.954,367.1517 326.005,369.3587 321.879,371.2107 Z" id="Stroke-750" stroke="#FFFFFF" stroke-linecap="round" stroke-linejoin="round"></path>
                        <path d="M253.727,349.4336 C244.494,343.6876 235.501,337.5736 226.737,331.1376 C217.277,324.1436 208.099,316.7826 199.189,309.1016 C209.614,314.2206 220.244,318.9026 231.035,323.1946 C242.785,327.8246 254.707,331.9866 266.768,335.7326 C264.33,338.6426 261.835,341.5066 259.21,344.2516 C257.465,346.0626 255.664,347.8266 253.727,349.4336 Z" id="Stroke-752" stroke="#FFFFFF" stroke-linecap="round" stroke-linejoin="round"></path>
                        <path d="M197.83,321.6172 C189.169,315.1832 180.75,308.4382 172.568,301.4062 C163.94,293.9472 155.588,286.1792 147.509,278.1282 C155.238,283.7292 163.204,288.9852 171.369,293.9272 C180.431,299.3682 189.718,304.4122 199.19,309.1012 C198.602,311.6082 198.101,314.1392 197.842,316.7022 C197.688,318.3362 197.627,319.9852 197.83,321.6172 Z" id="Stroke-754" stroke="#FFFFFF" stroke-linecap="round" stroke-linejoin="round"></path>
                        <path d="M199.19,309.1016 C208.1,316.7826 217.276,324.1436 226.737,331.1376 C235.502,337.5736 244.495,343.6876 253.728,349.4336 C243.711,345.3376 233.847,340.8906 224.161,336.0646 C215.21,331.5706 197.689,318.3366 197.843,316.7036 C198.102,314.1406 198.602,311.6096 199.19,309.1016 Z" id="Stroke-756" stroke="#FFFFFF" stroke-linecap="round" stroke-linejoin="round"></path>
                        <path d="M266.768,335.7323 C275.93,342.7183 285.342,349.3623 295.034,355.5943 C303.766,361.1673 312.707,366.3953 321.88,371.2103 C309.938,368.3213 298.103,365.0233 286.399,361.2863 C275.368,357.7293 264.469,353.7873 253.727,349.4333 C255.666,347.8263 257.466,346.0633 259.212,344.2523 C261.837,341.5083 264.331,338.6433 266.768,335.7323 Z" id="Stroke-758" stroke="#FFFFFF" stroke-linecap="round" stroke-linejoin="round"></path>
                        <path d="M348.262,354.3728 C356.887,360.4038 365.738,366.0998 374.855,371.3588 C382.797,375.9018 390.925,380.1018 399.265,383.8638 C386.023,382.6408 372.831,380.9698 359.704,378.8348 C347.01,376.7318 334.395,374.1978 321.879,371.2108 C326.006,369.3588 329.955,367.1518 333.784,364.7498 C338.804,361.5668 343.602,358.0588 348.262,354.3728 Z" id="Stroke-760" stroke="#FFFFFF" stroke-linecap="round" stroke-linejoin="round"></path>
                        <g id="Group-764" transform="translate(399.000000, 362.000000)">
                            <mask id="mask-49" fill="white">
                                <use href="#path-48"></use>
                            </mask>
                            <g id="Clip-763"></g>
                            <path d="M39.41,0.1165 C46.674,5.0745 54.131,9.7405 61.838,13.9805 C68.266,17.4805 74.852,20.6775 81.632,23.4405 C68.043,24.1235 54.441,24.3405 40.837,24.0955 C27.29,23.8135 13.761,23.0715 0.264,21.8635 C6.518,19.3415 12.582,16.3925 18.496,13.1565 C25.692,9.1765 32.642,4.7835 39.41,0.1165 Z" id="Stroke-762" stroke="#FFFFFF" stroke-linecap="round" stroke-linejoin="round" mask="url(#mask-49)"></path>
                        </g>
                        <path d="M253.73,349.4358 C262.209,354.6738 270.874,359.5938 279.733,364.1588 C287.815,368.2908 296.044,372.1198 304.42,375.6178 C294.368,372.4218 284.429,368.8908 274.62,365.0108 C265.358,361.3178 256.225,357.3198 247.236,353.0058 C248.17,352.8878 249.049,352.5258 249.88,352.0968 C251.262,351.3628 252.522,350.4258 253.73,349.4358 Z" id="Stroke-765" stroke="#FFFFFF" stroke-linecap="round" stroke-linejoin="round"></path>
                        <path d="M321.881,371.2129 C330.08,375.4789 338.445,379.4069 346.987,382.9379 C354.589,386.0479 362.313,388.8359 370.16,391.2639 C358.827,389.3859 347.565,387.1269 336.388,384.4739 C325.632,381.8879 314.971,378.9399 304.42,375.6179 C307.051,375.5429 309.655,375.1639 312.218,374.5629 C315.54,373.7549 318.755,372.5909 321.881,371.2129 Z" id="Stroke-767" stroke="#FFFFFF" stroke-linecap="round" stroke-linejoin="round"></path>
                        <g id="Group-771" transform="translate(370.000000, 383.000000)">
                            <mask id="mask-51" fill="white">
                                <use href="#path-50"></use>
                            </mask>
                            <g id="Clip-770"></g>
                            <path d="M29.265,0.8657 C36.486,4.0867 43.847,6.9707 51.36,9.4347 C57.86,11.5337 64.454,13.3147 71.139,14.7187 C59.16,14.4667 47.196,13.8077 35.262,12.7357 C23.512,11.6457 11.807,10.1577 0.16,8.2637 C4.681,7.8307 9.153,7.0437 13.567,5.9737 C18.915,4.6417 24.144,2.9017 29.265,0.8657 Z" id="Stroke-769" stroke="#FFFFFF" stroke-linecap="round" stroke-linejoin="round" mask="url(#mask-51)"></path>
                        </g>
                        <g id="Group-774" transform="translate(399.000000, 383.000000)">
                            <mask id="mask-53" fill="white">
                                <use href="#path-52"></use>
                            </mask>
                            <g id="Clip-773"></g>
                            <path d="M42.139,14.7188 C35.454,13.3148 28.861,11.5338 22.362,9.4348 C14.848,6.9708 7.486,4.0868 0.265,0.8658 C13.761,2.0738 27.29,2.8158 40.837,3.0988 C54.441,3.3438 68.043,3.1258 81.632,2.4418 C74.791,5.3858 67.82,7.9968 60.702,10.1858 C54.599,12.0328 48.41,13.5628 42.139,14.7188 Z" id="Stroke-772" stroke="#FFFFFF" stroke-linecap="round" stroke-linejoin="round" mask="url(#mask-53)"></path>
                        </g>
                        <path d="M370.16,391.2634 C362.313,388.8364 354.589,386.0474 346.988,382.9374 C338.446,379.4074 330.079,375.4784 321.88,371.2124 C334.396,374.2014 347.011,376.7344 359.706,378.8374 C372.831,380.9724 386.023,382.6434 399.265,383.8654 C394.144,385.9004 388.914,387.6414 383.565,388.9724 C379.153,390.0444 374.681,390.8304 370.16,391.2634 Z" id="Stroke-775" stroke="#FFFFFF" stroke-linecap="round" stroke-linejoin="round"></path>
                        <path d="M304.419,375.6179 C296.044,372.1199 287.815,368.2909 279.733,364.1589 C270.874,359.5939 262.208,354.6739 253.729,349.4359 C264.471,353.7889 275.37,357.7319 286.401,361.2899 C298.105,365.0259 309.939,368.3239 321.88,371.2129 C318.754,372.5909 315.539,373.7549 312.215,374.5629 C309.654,375.1629 307.051,375.5429 304.419,375.6179 Z" id="Stroke-777" stroke="#FFFFFF" stroke-linecap="round" stroke-linejoin="round"></path>
                    </g>
                </g>
            </g>
        </g>
    </g>
</svg>
